<svg width="512" height="512" viewBox="0 0 512 512" fill="none" xmlns="http://www.w3.org/2000/svg">
<path d="M90.008 421.864H36.552C24.576 421.864 14.832 412.12 14.832 400.144V111.008C14.832 99.032 24.576 89.288 36.552 89.288H90.008C101.984 89.288 111.728 99.032 111.728 111.008V400.152C111.728 412.128 101.984 421.864 90.008 421.864ZM36.552 105.424C33.472 105.424 30.968 107.928 30.968 111.008V400.152C30.968 403.232 33.472 405.736 36.552 405.736H90.008C93.088 405.736 95.592 403.232 95.592 400.152V111.008C95.592 107.928 93.088 105.424 90.008 105.424H36.552Z" fill="black"/>
<path d="M63.28 166.592C49.984 166.592 39.168 155.712 39.168 142.336C39.168 128.96 49.984 118.072 63.28 118.072C76.576 118.072 87.392 128.952 87.392 142.336C87.392 155.712 76.576 166.592 63.28 166.592ZM63.28 134.208C58.88 134.208 55.304 137.856 55.304 142.336C55.304 146.816 58.88 150.464 63.28 150.464C67.68 150.464 71.256 146.816 71.256 142.336C71.256 137.856 67.68 134.208 63.28 134.208Z" fill="black"/>
<path d="M63.28 228.952C49.984 228.952 39.168 218.072 39.168 204.688C39.168 191.312 49.984 180.432 63.28 180.432C76.576 180.432 87.392 191.312 87.392 204.688C87.392 218.072 76.576 228.952 63.28 228.952ZM63.28 196.568C58.88 196.568 55.304 200.216 55.304 204.696C55.304 209.176 58.88 212.824 63.28 212.824C67.68 212.824 71.256 209.176 71.256 204.696C71.256 200.216 67.68 196.568 63.28 196.568Z" fill="black"/>
<path d="M475.448 421.864H421.992C410.016 421.864 400.272 412.12 400.272 400.144V111.008C400.272 99.032 410.016 89.288 421.992 89.288H475.448C487.424 89.288 497.168 99.032 497.168 111.008V400.152C497.168 412.128 487.424 421.864 475.448 421.864ZM421.992 105.424C418.912 105.424 416.408 107.928 416.408 111.008V400.152C416.408 403.232 418.912 405.736 421.992 405.736H475.448C478.528 405.736 481.032 403.232 481.032 400.152V111.008C481.032 107.928 478.528 105.424 475.448 105.424H421.992Z" fill="black"/>
<path d="M448.72 166.592C435.424 166.592 424.608 155.712 424.608 142.336C424.608 128.96 435.424 118.072 448.72 118.072C462.016 118.072 472.832 128.952 472.832 142.336C472.832 155.712 462.008 166.592 448.72 166.592ZM448.72 134.208C444.32 134.208 440.744 137.856 440.744 142.336C440.744 146.816 444.32 150.464 448.72 150.464C453.12 150.464 456.696 146.816 456.696 142.336C456.696 137.856 453.12 134.208 448.72 134.208Z" fill="black"/>
<path d="M448.72 228.952C435.424 228.952 424.608 218.072 424.608 204.688C424.608 191.312 435.424 180.432 448.72 180.432C462.016 180.432 472.832 191.312 472.832 204.688C472.832 218.072 462.008 228.952 448.72 228.952ZM448.72 196.568C444.32 196.568 440.744 200.216 440.744 204.696C440.744 209.176 444.32 212.824 448.72 212.824C453.12 212.824 456.696 209.176 456.696 204.696C456.696 200.216 453.12 196.568 448.72 196.568Z" fill="black"/>
<path d="M361.992 422.712H150.008C138.032 422.712 128.296 412.968 128.296 400.992V341.952C128.296 329.976 138.04 320.232 150.008 320.232H361.984C373.96 320.232 383.696 329.976 383.696 341.952V400.992C383.704 412.968 373.96 422.712 361.992 422.712ZM150.008 336.368C146.928 336.368 144.424 338.872 144.424 341.952V400.992C144.424 404.072 146.928 406.576 150.008 406.576H361.984C365.064 406.576 367.568 404.072 367.568 400.992V341.952C367.568 338.872 365.064 336.368 361.984 336.368H150.008Z" fill="black"/>
<path d="M256 422.712C251.544 422.712 247.936 419.104 247.936 414.648V328.304C247.936 323.848 251.544 320.24 256 320.24C260.456 320.24 264.064 323.848 264.064 328.304V414.648C264.064 419.104 260.456 422.712 256 422.712Z" fill="black"/>
<path d="M363.008 298.664H148.992C137.584 298.664 128.296 289.376 128.296 277.968V137.848C128.296 126.44 137.584 117.152 148.992 117.152H363.008C374.416 117.152 383.704 126.44 383.704 137.848V277.96C383.704 289.376 374.416 298.664 363.008 298.664ZM148.992 133.288C146.48 133.288 144.432 135.336 144.432 137.848V277.96C144.432 280.472 146.48 282.52 148.992 282.52H363.008C365.52 282.52 367.568 280.472 367.568 277.96V137.848C367.568 135.336 365.52 133.288 363.008 133.288H148.992Z" fill="black"/>
<path d="M222.24 256.656C220.712 256.656 219.2 256.224 217.872 255.368C215.568 253.88 214.176 251.328 214.176 248.584V167.232C214.176 164.488 215.568 161.936 217.872 160.448C220.184 158.96 223.08 158.76 225.576 159.888L315.048 200.568C317.928 201.88 319.776 204.744 319.776 207.912C319.776 211.08 317.928 213.944 315.048 215.256L225.576 255.928C224.512 256.416 223.376 256.656 222.24 256.656ZM230.312 179.76V236.064L292.224 207.912L230.312 179.76Z" fill="black"/>
<path d="M274.728 336.368C270.272 336.368 266.664 332.76 266.664 328.304V290.6C266.664 286.144 270.272 282.536 274.728 282.536C279.184 282.536 282.792 286.144 282.792 290.6V328.304C282.792 332.76 279.184 336.368 274.728 336.368Z" fill="black"/>
<path d="M237.272 336.368C232.816 336.368 229.208 332.76 229.208 328.304V290.6C229.208 286.144 232.816 282.536 237.272 282.536C241.728 282.536 245.336 286.144 245.336 290.6V328.304C245.336 332.76 241.728 336.368 237.272 336.368Z" fill="black"/>
</svg>
