<svg width="512" height="512" viewBox="0 0 512 512" fill="none" xmlns="http://www.w3.org/2000/svg">
<path d="M421.161 379.871H371.613V355.097C371.613 341.44 360.496 330.323 346.839 330.323V24.7742C346.839 11.1169 335.722 0 322.065 0C308.407 0 297.29 11.1169 297.29 24.7742V330.323C283.633 330.323 272.516 341.44 272.516 355.097V379.871H222.968C209.31 379.871 198.194 390.988 198.194 404.645V487.226C198.194 500.883 209.31 512 222.968 512C236.625 512 247.742 500.883 247.742 487.226V437.677C247.742 433.121 251.444 429.419 256 429.419C260.556 429.419 264.258 433.121 264.258 437.677V487.226C264.258 500.883 275.375 512 289.032 512C302.69 512 313.806 500.883 313.806 487.226V437.677C313.806 433.121 317.508 429.419 322.065 429.419C326.621 429.419 330.323 433.121 330.323 437.677V487.226C330.323 500.883 341.44 512 355.097 512C368.754 512 379.871 500.883 379.871 487.226V437.677C379.871 433.121 383.573 429.419 388.129 429.419C392.685 429.419 396.387 433.121 396.387 437.677V487.226C396.387 500.883 407.504 512 421.161 512C434.819 512 445.935 500.883 445.935 487.226V404.645C445.935 390.988 434.819 379.871 421.161 379.871ZM313.806 24.7742C313.806 20.2258 317.508 16.5161 322.065 16.5161C326.621 16.5161 330.323 20.2258 330.323 24.7742V330.323H313.806V24.7742ZM429.419 487.226C429.419 491.782 425.718 495.484 421.161 495.484C416.605 495.484 412.903 491.782 412.903 487.226V437.677C412.903 424.02 401.786 412.903 388.129 412.903C374.472 412.903 363.355 424.02 363.355 437.677V487.226C363.355 491.782 359.653 495.484 355.097 495.484C350.54 495.484 346.839 491.782 346.839 487.226V437.677C346.839 424.02 335.722 412.903 322.065 412.903C308.407 412.903 297.29 424.02 297.29 437.677V487.226C297.29 491.782 293.589 495.484 289.032 495.484C284.476 495.484 280.774 491.782 280.774 487.226V437.677C280.774 424.02 269.657 412.903 256 412.903C242.343 412.903 231.226 424.02 231.226 437.677V487.226C231.226 491.782 227.524 495.484 222.968 495.484C218.411 495.484 214.71 491.782 214.71 487.226V404.645C214.71 400.089 218.411 396.387 222.968 396.387H313.806V379.871H289.032V355.097C289.032 350.54 292.734 346.839 297.29 346.839H346.839C351.395 346.839 355.097 350.54 355.097 355.097V379.871H330.323V396.387H421.161C425.718 396.387 429.419 400.089 429.419 404.645V487.226Z" fill="black"/>
<path d="M90.8387 363.355C77.1814 363.355 66.0645 374.472 66.0645 388.129V412.903H115.613V388.129C115.613 374.472 104.496 363.355 90.8387 363.355ZM99.0968 396.387H82.5806V388.129C82.5806 383.573 86.2823 379.871 90.8387 379.871C95.3952 379.871 99.0968 383.573 99.0968 388.129V396.387Z" fill="black"/>
<path d="M115.613 330.81V24.7742C115.613 11.1169 104.496 0 90.8387 0C77.1814 0 66.0645 11.1169 66.0645 24.7742V330.81C28.9597 334.931 0 366.452 0 404.645V512H181.677V404.645C181.677 366.452 152.718 334.931 115.613 330.81ZM90.8387 16.5161C95.3952 16.5161 99.0968 20.2258 99.0968 24.7742V330.323H82.5806V24.7742C82.5806 20.2258 86.2823 16.5161 90.8387 16.5161ZM165.161 462.452H140.387V478.968H165.161V495.484H16.5161V478.968H123.871V462.452H16.5161V404.645C16.5161 372.778 42.4556 346.839 74.3226 346.839H107.355C139.222 346.839 165.161 372.778 165.161 404.645V462.452Z" fill="black"/>
</svg>
