<svg width="512" height="512" viewBox="0 0 512 512" fill="none" xmlns="http://www.w3.org/2000/svg">
<path d="M356.208 248.5H282.452C279.856 239.358 272.642 232.144 263.5 229.548V206.25C263.5 202.108 260.143 198.75 256 198.75C251.857 198.75 248.5 202.108 248.5 206.25V229.548C236.972 232.822 228.5 243.437 228.5 256C228.5 271.164 240.837 283.5 256 283.5C268.563 283.5 279.178 275.028 282.452 263.5H356.208C360.351 263.5 363.708 260.142 363.708 256C363.708 251.858 360.351 248.5 356.208 248.5ZM256 268.5C249.107 268.5 243.5 262.893 243.5 256C243.5 249.107 249.107 243.5 256 243.5C262.893 243.5 268.5 249.107 268.5 256C268.5 262.893 262.893 268.5 256 268.5Z" fill="black"/>
<path d="M256 151C251.857 151 248.5 154.358 248.5 158.5V176.283C248.5 180.425 251.857 183.783 256 183.783C260.143 183.783 263.5 180.425 263.5 176.283V158.5C263.5 154.358 260.143 151 256 151Z" fill="black"/>
<path d="M256 328.217C251.857 328.217 248.5 331.575 248.5 335.717V353.5C248.5 357.642 251.857 361 256 361C260.143 361 263.5 357.642 263.5 353.5V335.717C263.5 331.575 260.143 328.217 256 328.217Z" fill="black"/>
<path d="M176.283 248.5H158.5C154.357 248.5 151 251.858 151 256C151 260.142 154.357 263.5 158.5 263.5H176.283C180.426 263.5 183.783 260.142 183.783 256C183.783 251.858 180.426 248.5 176.283 248.5Z" fill="black"/>
<path d="M219.57 177.902L213.745 167.812C211.675 164.224 207.085 162.995 203.5 165.067C199.913 167.138 198.684 171.725 200.755 175.312L206.58 185.402C207.969 187.808 210.49 189.153 213.082 189.153C214.354 189.153 215.645 188.829 216.825 188.147C220.412 186.077 221.642 181.49 219.57 177.902Z" fill="black"/>
<path d="M311.245 336.688L305.42 326.598C303.35 323.01 298.761 321.782 295.175 323.853C291.588 325.924 290.359 330.511 292.43 334.098L298.255 344.188C299.644 346.594 302.165 347.939 304.757 347.939C306.029 347.939 307.32 347.615 308.5 346.933C312.087 344.862 313.316 340.275 311.245 336.688Z" fill="black"/>
<path d="M346.932 203.5C344.861 199.913 340.272 198.685 336.687 200.755L326.597 206.581C323.01 208.652 321.781 213.239 323.852 216.826C325.242 219.232 327.763 220.577 330.354 220.577C331.626 220.577 332.917 220.252 334.097 219.571L344.187 213.745C347.774 211.674 349.003 207.087 346.932 203.5Z" fill="black"/>
<path d="M188.147 295.174C186.075 291.586 181.488 290.359 177.902 292.429L167.812 298.255C164.225 300.326 162.996 304.913 165.067 308.5C166.457 310.906 168.978 312.251 171.569 312.251C172.841 312.251 174.132 311.926 175.312 311.245L185.402 305.419C188.989 303.348 190.218 298.761 188.147 295.174Z" fill="black"/>
<path d="M185.402 206.581L175.312 200.755C171.725 198.683 167.138 199.912 165.067 203.5C162.996 207.087 164.225 211.674 167.812 213.745L177.902 219.571C179.083 220.253 180.373 220.577 181.645 220.577C184.237 220.577 186.757 219.232 188.147 216.826C190.219 213.239 188.989 208.652 185.402 206.581Z" fill="black"/>
<path d="M344.188 298.255L334.098 292.429C330.512 290.357 325.924 291.586 323.853 295.174C321.782 298.761 323.011 303.348 326.598 305.419L336.688 311.245C337.869 311.927 339.159 312.251 340.431 312.251C343.023 312.251 345.543 310.906 346.933 308.5C349.004 304.913 347.774 300.326 344.188 298.255Z" fill="black"/>
<path d="M308.5 165.068C304.911 162.996 300.324 164.226 298.255 167.813L292.43 177.903C290.359 181.49 291.588 186.077 295.175 188.148C296.356 188.83 297.646 189.154 298.918 189.154C301.51 189.154 304.031 187.808 305.42 185.403L311.245 175.313C313.316 171.726 312.087 167.139 308.5 165.068Z" fill="black"/>
<path d="M216.825 323.853C213.236 321.782 208.649 323.011 206.58 326.598L200.755 336.688C198.684 340.275 199.913 344.862 203.5 346.933C204.682 347.615 205.971 347.939 207.243 347.939C209.835 347.939 212.356 346.593 213.745 344.188L219.57 334.098C221.642 330.51 220.412 325.923 216.825 323.853Z" fill="black"/>
<path d="M358.484 108.111C358.476 108.105 358.47 108.099 358.463 108.094C348.954 101.055 343.5 90.063 343.5 77.935V27.5C343.5 12.336 331.163 0 316 0H278.5C272.959 0 268.11 3.02 265.513 7.5H246.488C243.89 3.02 239.041 0 233.5 0H196C180.837 0 168.5 12.336 168.5 27.5V78C168.5 89.969 163.134 100.858 153.776 107.93C106.822 140.447 76 194.688 76 256C76 317.11 106.618 371.195 153.312 403.747C153.356 403.781 153.395 403.818 153.44 403.851C163.011 410.9 168.501 421.912 168.501 434.065V484.5C168.501 499.664 180.838 512 196.001 512H316.001C331.164 512 343.501 499.664 343.501 484.5V434C343.501 421.922 348.993 410.93 358.57 403.84C358.599 403.818 358.624 403.793 358.653 403.772C405.366 371.222 436 317.126 436 256C436 194.801 405.292 140.648 358.484 108.111ZM183.5 78V27.5C183.5 20.607 189.107 15 196 15H233.5C233.5 19.142 236.857 22.5 241 22.5H271C275.143 22.5 278.5 19.142 278.5 15H316C322.893 15 328.5 20.607 328.5 27.5V77.935C328.5 82.82 329.158 87.57 330.388 92.103C307.702 81.766 282.512 76 256 76C229.491 76 204.304 81.764 181.621 92.099C182.845 87.584 183.5 82.858 183.5 78ZM328.5 434V484.5C328.5 491.393 322.893 497 316 497H196C189.107 497 183.5 491.393 183.5 484.5V434.065C183.5 429.179 182.84 424.429 181.609 419.895C204.295 430.234 229.486 436 256 436C282.513 436 307.703 430.234 330.388 419.897C329.158 424.414 328.5 429.141 328.5 434ZM256 421C165.019 421 91 346.981 91 256C91 199.99 119.059 150.417 161.852 120.577C162.077 120.444 162.297 120.299 162.511 120.139C162.58 120.088 162.643 120.032 162.711 119.981C189.265 101.712 221.403 91 256 91C346.981 91 421 165.019 421 256C421 346.981 346.981 421 256 421Z" fill="black"/>
<path d="M256 121C181.561 121 121 181.561 121 256C121 330.439 181.561 391 256 391C285.517 391 313.575 381.604 337.143 363.827C340.45 361.332 341.109 356.63 338.614 353.323C336.122 350.016 331.418 349.357 328.11 351.852C307.165 367.649 282.23 376 256 376C189.832 376 136 322.168 136 256C136 189.832 189.832 136 256 136C322.168 136 376 189.832 376 256C376 283.78 366.244 310.885 348.53 332.321C345.891 335.514 346.341 340.241 349.534 342.88C352.726 345.519 357.455 345.069 360.093 341.877C380.023 317.758 391 287.26 391 256C391 181.561 330.439 121 256 121Z" fill="black"/>
</svg>
