<svg width="512" height="512" viewBox="0 0 512 512" fill="none" xmlns="http://www.w3.org/2000/svg">
<path d="M342.713 483.592C315.075 472.019 283.751 458.901 256 458.901C228.249 458.901 196.925 472.019 169.287 483.592C133.786 498.459 103.127 511.296 81.082 496.631C67.569 487.639 61 470.391 61 443.901C61 387.387 78.687 325.6 108.313 278.621C142.541 224.342 192.832 188.901 256.001 188.901C319.159 188.901 369.453 224.33 403.689 278.621C433.313 325.6 451 387.387 451 443.901C451 470.391 444.431 487.639 430.918 496.63C407.602 512.143 373.184 496.352 342.713 483.592ZM256 428.901C289.778 428.901 324.057 443.255 354.301 455.921C368.637 461.924 404.696 478.043 414.299 471.654C415.871 470.608 421 465.515 421 443.901C421 392.816 405.042 337.011 378.312 294.623C356.528 260.079 317.625 218.901 255.999 218.901C194.373 218.901 155.471 260.079 133.686 294.623C106.958 337.011 91 392.815 91 443.901C91 465.515 96.129 470.608 97.701 471.654C106.365 477.418 134.829 465.498 157.699 455.921C187.943 443.255 222.222 428.901 256 428.901Z" fill="black"/>
<path d="M181 158.901C149.991 158.901 121 128.362 121 83.901C121 38.998 150.308 8.901 181 8.901C212.009 8.901 241 39.44 241 83.901C241 128.804 211.692 158.901 181 158.901ZM181 38.901C164.738 38.901 151 59.508 151 83.901C151 108.294 164.738 128.901 181 128.901C197.262 128.901 211 108.294 211 83.901C211 59.508 197.262 38.901 181 38.901Z" fill="black"/>
<path d="M452 248.901C420.991 248.901 392 218.362 392 173.901C392 128.998 421.308 98.901 452 98.901C483.009 98.901 512 129.44 512 173.901C512 218.804 482.692 248.901 452 248.901ZM452 128.901C435.738 128.901 422 149.508 422 173.901C422 198.294 435.738 218.901 452 218.901C468.262 218.901 482 198.294 482 173.901C482 149.508 468.262 128.901 452 128.901Z" fill="black"/>
<path d="M60 248.901C28.991 248.901 0 218.362 0 173.901C0 128.998 29.308 98.901 60 98.901C91.009 98.901 120 129.44 120 173.901C120 218.804 90.692 248.901 60 248.901ZM60 128.901C43.738 128.901 30 149.508 30 173.901C30 198.294 43.738 218.901 60 218.901C76.262 218.901 90 198.294 90 173.901C90 149.508 76.262 128.901 60 128.901Z" fill="black"/>
<path d="M331 158.901C299.991 158.901 271 128.362 271 83.901C271 38.998 300.308 8.901 331 8.901C362.009 8.901 391 39.44 391 83.901C391 128.804 361.692 158.901 331 158.901ZM331 38.901C314.738 38.901 301 59.508 301 83.901C301 108.294 314.738 128.901 331 128.901C347.262 128.901 361 108.294 361 83.901C361 59.508 347.262 38.901 331 38.901Z" fill="black"/>
</svg>
