<svg width="512" height="512" viewBox="0 0 512 512" fill="none" xmlns="http://www.w3.org/2000/svg">
<path d="M246.895 404.942C242.189 406.965 239.324 411.577 239.595 416.692C239.867 421.807 243.204 426.089 248.097 427.602L264.287 432.61L270.979 448.179C273.009 452.902 277.655 455.748 282.728 455.479C287.843 455.208 292.126 451.871 293.64 446.977L298.648 430.787L314.217 424.095C318.922 422.073 321.788 417.461 321.517 412.346C321.246 407.231 317.91 402.948 313.016 401.434L296.826 396.426L290.133 380.856C288.111 376.15 283.472 373.285 278.384 373.557C273.27 373.829 268.987 377.165 267.473 382.059L262.464 398.249L246.895 404.942ZM269.622 411.5C272.88 410.099 275.349 407.353 276.397 403.964L279.469 394.032L283.576 403.584C284.976 406.841 287.722 409.311 291.11 410.359L301.042 413.431L291.49 417.536C288.232 418.937 285.762 421.683 284.715 425.072L281.644 435.003L277.537 425.452C276.137 422.195 273.391 419.725 270.003 418.677L260.071 415.605L269.622 411.5ZM260.5 294.971L239.485 288.47L230.797 268.262C228.584 263.115 223.533 259.973 217.945 260.276C212.349 260.572 207.663 264.222 206.007 269.576L199.506 290.591L179.297 299.279C174.149 301.492 171.016 306.537 171.313 312.132C171.61 317.727 175.26 322.412 180.613 324.068L201.628 330.568L210.315 350.778C212.432 355.701 217.138 358.783 222.44 358.782C228.281 358.782 233.384 355.059 235.105 349.463L241.606 328.448L261.815 319.761C266.962 317.548 270.097 312.503 269.8 306.907C269.503 301.311 265.853 296.626 260.5 294.971ZM234.932 314.989C231.366 316.522 228.662 319.528 227.518 323.233L222.197 340.435L215.087 323.894C213.556 320.33 210.552 317.628 206.844 316.48L189.642 311.159L206.185 304.048C209.75 302.515 212.453 299.509 213.597 295.804L218.917 278.603L226.028 295.144C227.559 298.709 230.564 301.412 234.271 302.558L251.472 307.879L234.932 314.989ZM255.891 305.98L255.885 305.982C255.887 305.981 255.889 305.98 255.891 305.98ZM486.104 242.7L391.884 151.201C389.362 148.831 386.082 146.831 382.839 145.496L321.661 120.574L264.011 78.6V54.899C277.772 54.112 288.725 42.686 288.725 28.753C288.725 12.482 276.461 0 260.227 0C245.366 0 233.276 12.072 233.276 26.911C233.276 31.053 236.633 34.411 240.776 34.411C244.919 34.411 248.276 31.053 248.276 26.911C248.276 20.343 253.637 15 260.227 15C268.085 15 273.725 20.888 273.725 28.753C273.725 34.923 268.688 39.943 262.497 39.943C255.061 39.943 249.012 45.987 249.012 53.416V77.92L192.334 120.577L129.398 145.538C126.127 146.866 122.655 148.801 120.097 151.222L25.9 242.699C19.441 248.964 16.42 258.012 17.818 266.901C19.215 275.789 24.867 283.47 32.93 287.447L112.035 326.515V412.263C112.035 416.405 115.392 419.763 119.535 419.763C123.678 419.763 127.035 416.405 127.035 412.263V171.099C127.032 165.946 130.225 161.34 134.927 159.479L188.538 138.217V152.344C188.538 190.1 219.256 220.818 257.013 220.818C268.689 220.818 280.219 217.825 290.357 212.164C293.973 210.144 295.267 205.576 293.248 201.959C291.229 198.342 286.661 197.047 283.043 199.068C275.136 203.484 266.135 205.818 257.014 205.818C227.528 205.818 203.539 181.83 203.539 152.344V139.284L218.09 146.524C242.462 158.652 271.562 158.652 295.936 146.525L310.488 139.284V152.344C310.488 163.264 307.22 173.764 301.037 182.709C298.683 186.116 299.535 190.788 302.942 193.143C306.316 195.475 311.002 194.673 313.377 191.238C321.3 179.775 325.488 166.325 325.488 152.344V138.328L377.184 159.388C381.913 161.314 384.968 165.858 384.968 170.964V484.5C384.968 491.393 379.361 497 372.468 497H139.534C132.641 497 127.034 491.393 127.034 484.5V442.261C127.034 438.119 123.677 434.761 119.534 434.761C115.391 434.761 112.034 438.119 112.034 442.261V484.5C112.034 499.664 124.37 512 139.534 512H372.466C387.63 512 399.966 499.664 399.966 484.5V326.513L479.068 287.447C487.135 283.467 492.787 275.786 494.184 266.899C495.582 258.009 492.56 248.962 486.104 242.7ZM112.034 309.783L39.567 273.994C35.812 272.142 33.285 268.706 32.633 264.568C31.983 260.428 33.334 256.381 36.344 253.461L112.033 179.958L112.034 309.783ZM289.252 133.095C269.062 143.141 244.959 143.141 224.771 133.094L210.246 125.867L256.074 91.376L303.582 125.964L289.252 133.095ZM479.366 264.568C478.715 268.706 476.187 272.142 472.428 273.996L399.965 309.784V179.957L475.657 253.463C478.665 256.381 480.017 260.428 479.366 264.568Z" fill="black"/>
</svg>
