<svg width="512" height="512" viewBox="0 0 512 512" fill="none" xmlns="http://www.w3.org/2000/svg">
<path d="M486 496H26C20.477 496 16 491.522 16 486V436C16 430.478 20.477 426 26 426H486C491.522 426 496 430.478 496 436V486C496 491.522 491.522 496 486 496ZM36 476H476V446H36V476Z" fill="black"/>
<path d="M486 286H26C20.477 286 16 281.522 16 276V226C16 220.477 20.477 216 26 216H486C491.522 216 496 220.477 496 226V276C496 281.522 491.522 286 486 286ZM36 266H476V236H36V266Z" fill="black"/>
<path d="M456 446H56C50.477 446 46 441.522 46 436V276C46 270.477 50.477 266 56 266H456C461.522 266 466 270.477 466 276V436C466 441.522 461.522 446 456 446ZM66 426H446V286H66V426Z" fill="black"/>
<path d="M131 196C100.673 196 76 175.813 76 151C76 126.187 100.673 106 131 106C161.327 106 186 126.187 186 151C186 175.813 161.327 196 131 196ZM131 126C112.028 126 96 137.449 96 151C96 164.551 112.028 176 131 176C149.972 176 166 164.551 166 151C166 137.449 149.972 126 131 126Z" fill="black"/>
<path d="M426 161H176C170.477 161 166 156.523 166 151C166 145.477 170.477 141 176 141H426C431.522 141 436 145.477 436 151C436 156.523 431.522 161 426 161Z" fill="black"/>
<path d="M381 106C350.673 106 326 85.813 326 61C326 36.187 350.673 16 381 16C411.327 16 436 36.187 436 61C436 85.813 411.327 106 381 106ZM381 36C362.028 36 346 47.449 346 61C346 74.551 362.028 86 381 86C399.972 86 416 74.551 416 61C416 47.449 399.972 36 381 36Z" fill="black"/>
<path d="M336 71H86C80.477 71 76 66.523 76 61C76 55.477 80.477 51 86 51H336C341.522 51 346 55.477 346 61C346 66.523 341.522 71 336 71Z" fill="black"/>
<path d="M156 446C152.552 446 149.347 444.224 147.52 441.3L47.52 281.3C44.593 276.616 46.017 270.447 50.7 267.52C55.383 264.594 61.553 266.016 64.48 270.7L156 417.132L247.52 270.7C250.447 266.016 256.617 264.592 261.3 267.52C265.984 270.447 267.407 276.616 264.48 281.3L164.48 441.3C162.653 444.224 159.448 446 156 446Z" fill="black"/>
<path d="M356 446C352.552 446 349.348 444.224 347.52 441.3L247.52 281.3C244.593 276.616 246.017 270.447 250.7 267.52C255.382 264.594 261.553 266.016 264.48 270.7L356 417.132L447.52 270.7C450.448 266.018 456.616 264.593 461.3 267.52C465.984 270.447 467.407 276.616 464.481 281.3L364.481 441.3C362.652 444.224 359.448 446 356 446Z" fill="black"/>
</svg>
