<svg width="512" height="512" viewBox="0 0 512 512" fill="none" xmlns="http://www.w3.org/2000/svg">
<g clip-path="url(#clip0_1_26)">
<path d="M264.258 392.061V145.474C264.258 140.912 260.562 137.216 256 137.216C251.438 137.216 247.742 140.912 247.742 145.474V392.061C247.742 396.623 251.438 400.319 256 400.319C260.562 400.319 264.258 396.623 264.258 392.061Z" fill="black"/>
<path d="M503.742 83.4417C486.283 83.4417 464.528 75.9081 441.495 67.933C412.325 57.8318 379.261 46.3839 344.971 46.3839C305.294 46.3839 281.088 63.771 267.769 78.3569C262.788 83.8139 258.928 89.2818 256.001 94.132C253.074 89.2818 249.214 83.8139 244.233 78.3569C230.913 63.771 206.708 46.3839 167.031 46.3839C132.74 46.3839 99.677 57.8318 70.5074 67.933C47.4718 75.9081 25.7167 83.4417 8.25806 83.4417C3.69631 83.4417 0 87.138 0 91.6997V424.326C0 428.888 3.69631 432.584 8.25806 432.584C28.4958 432.584 51.527 424.609 75.9092 416.166C103.849 406.492 135.517 395.526 167.029 395.526C194.049 395.526 215.92 404.473 232.034 422.119C235.108 425.486 240.333 425.723 243.701 422.648C247.069 419.572 247.305 414.349 244.23 410.981C230.91 396.396 206.705 379.009 167.029 379.009C132.738 379.009 99.6748 390.457 70.5052 400.558C50.9776 407.322 32.3672 413.764 16.5161 415.57V99.5482C34.674 97.8184 54.784 90.8541 75.9092 83.5397C103.849 73.8656 135.517 62.9 167.029 62.9C230.76 62.9 247.435 113.508 248.105 115.635C249.171 119.101 252.373 121.468 256 121.468C259.627 121.468 262.829 119.102 263.895 115.635C264.055 115.108 280.833 62.9 344.971 62.9C376.483 62.9 408.151 73.8656 436.091 83.5397C457.217 90.8552 477.326 97.8184 495.484 99.5482V415.57C479.633 413.764 461.022 407.322 441.495 400.559C412.325 390.458 379.261 379.01 344.971 379.01C305.293 379.01 281.087 396.397 267.769 410.983C264.694 414.352 264.931 419.575 268.298 422.65C271.667 425.725 276.891 425.489 279.965 422.121C296.079 404.475 317.95 395.527 344.971 395.527C376.483 395.527 408.151 406.493 436.091 416.167C460.474 424.61 483.505 432.585 503.742 432.585C508.304 432.585 512 428.889 512 424.327V91.6997C512 87.1391 508.304 83.4417 503.742 83.4417Z" fill="black"/>
<path d="M503.742 449.1C486.283 449.1 464.528 441.566 441.495 433.591C412.325 423.49 379.261 412.042 344.971 412.042C307.708 412.042 284.092 427.378 270.323 441.326L241.676 441.325C227.907 427.377 204.29 412.042 167.029 412.042C132.738 412.042 99.6748 423.49 70.5052 433.591C47.4718 441.566 25.7167 449.1 8.25806 449.1C3.69631 449.1 0 452.796 0 457.358C0 461.92 3.69631 465.616 8.25806 465.616C28.4958 465.616 51.527 457.641 75.9092 449.198C103.849 439.524 135.517 428.558 167.029 428.558C194.049 428.558 215.92 437.506 232.034 455.151C233.599 456.865 235.812 457.84 238.132 457.84L273.866 457.841C276.186 457.841 278.399 456.865 279.964 455.153C296.078 437.506 317.949 428.558 344.97 428.558C376.482 428.558 408.15 439.524 436.09 449.198C460.473 457.641 483.504 465.616 503.741 465.616C508.303 465.616 511.999 461.92 511.999 457.358C511.999 452.796 508.304 449.1 503.742 449.1Z" fill="black"/>
</g>
<defs>
<clipPath id="clip0_1_26">
<rect width="512" height="512" fill="white"/>
</clipPath>
</defs>
</svg>
