<svg width="512" height="512" viewBox="0 0 512 512" fill="none" xmlns="http://www.w3.org/2000/svg">
<g clip-path="url(#clip0_1_32)">
<path d="M497 482H481.05V300.998H496.05C504.334 300.998 511.05 294.282 511.05 285.998V225.998C511.05 217.714 504.334 210.998 496.05 210.998H457.074V180.254C457.074 110.967 423.778 44.256 364.084 2.63501C360.663 0.287006 356.259 -0.606994 352.034 0.426006L266.845 21.24C255.531 24.005 251.512 38.132 259.799 46.418L323.8 110.42C332.063 118.684 346.15 114.691 348.959 103.449L364.538 41.086C404.036 76.167 427.074 126.737 427.074 180.254V210.998H247.359L255.998 107.241C256.726 98.503 249.824 90.997 241.05 90.997H70.95C62.18 90.997 55.274 98.499 56.002 107.241L64.641 210.998H16C7.716 210.998 1 217.714 1 225.998V285.998C1 294.282 7.716 300.998 16 300.998H31.05V482H15C6.716 482 0 488.716 0 497C0 505.284 6.716 512 15 512H497C505.284 512 512 505.284 512 497C512 488.716 505.284 482 497 482ZM326.276 70.468L299.862 44.054L335.02 35.464L326.276 70.468ZM224.749 120.997L217.255 210.998H94.745L87.251 120.997H224.749ZM31 240.998C228.674 241.096 283.356 241.001 481.05 240.998V270.998H31V240.998ZM61.05 300.998H451.05V482H271V421H331C339.284 421 346 414.284 346 406V366C346 346.701 330.299 331 311 331H201C181.701 331 166 346.701 166 366V406C166 414.284 172.716 421 181 421H241V482H61.05V300.998ZM196 390.999V365.999C196 363.242 198.243 360.999 201 360.999H311C313.757 360.999 316 363.242 316 365.999V390.999H196Z" fill="black"/>
<path d="M156 180.997C164.284 180.997 171 174.281 171 165.997C171 157.713 164.284 150.997 156 150.997C147.716 150.997 141 157.713 141 165.997C141 174.281 147.716 180.997 156 180.997Z" fill="black"/>
</g>
<defs>
<clipPath id="clip0_1_32">
<rect width="512" height="512" fill="white"/>
</clipPath>
</defs>
</svg>
