<svg width="512" height="512" viewBox="0 0 512 512" fill="none" xmlns="http://www.w3.org/2000/svg">
<path d="M298.667 25.6H213.334C208.624 25.6 204.801 29.423 204.801 34.133C204.801 38.843 208.624 42.666 213.334 42.666H298.667C303.377 42.666 307.2 38.843 307.2 34.133C307.2 29.423 303.377 25.6 298.667 25.6Z" fill="black"/>
<path d="M358.4 25.6H349.867C345.157 25.6 341.334 29.423 341.334 34.133C341.334 38.843 345.157 42.666 349.867 42.666H358.4C363.11 42.666 366.933 38.843 366.933 34.133C366.933 29.423 363.11 25.6 358.4 25.6Z" fill="black"/>
<path d="M266.598 435.2H245.41C232.431 435.2 221.867 445.764 221.867 458.743V462.865C221.867 475.844 232.431 486.4 245.402 486.4H266.59C279.569 486.4 290.133 475.844 290.133 462.865V458.743C290.133 445.764 279.569 435.2 266.598 435.2ZM273.067 462.865C273.067 466.432 270.166 469.333 266.599 469.333H245.41C241.835 469.333 238.933 466.432 238.933 462.865V458.743C238.933 455.168 241.834 452.266 245.41 452.266H266.59C270.166 452.266 273.067 455.167 273.067 458.743V462.865Z" fill="black"/>
<path d="M370.227 0H141.781C124.774 0 110.933 13.841 110.933 30.848V481.152C110.933 498.159 124.774 512 141.781 512H370.218C387.225 512 401.066 498.159 401.066 481.161V30.848C401.067 13.841 387.226 0 370.227 0ZM384 481.152C384 488.747 377.822 494.933 370.227 494.933H141.781C134.178 494.933 128 488.746 128 481.16V30.848C128 23.253 134.178 17.067 141.781 17.067H370.218C377.821 17.067 383.999 23.254 383.999 30.848V481.152H384Z" fill="black"/>
<path d="M392.533 51.2H119.467C114.757 51.2 110.934 55.023 110.934 59.733V418.133C110.934 422.843 114.757 426.666 119.467 426.666H392.534C397.244 426.666 401.067 422.843 401.067 418.133V59.733C401.067 55.023 397.244 51.2 392.533 51.2ZM384 409.6H128V68.267H384V409.6Z" fill="black"/>
</svg>
