<svg width="512" height="512" viewBox="0 0 512 512" fill="none" xmlns="http://www.w3.org/2000/svg">
<path d="M40.0153 32.501C26.8584 32.501 15.9841 43.313 15.9841 56.47V360.486C15.9841 373.642 26.8584 384.47 40.0153 384.47H197.75L185.75 432.486H160.015C151.29 432.486 144.015 439.76 144.015 448.485V464.485C144.015 473.211 151.29 480.486 160.015 480.486H352C360.725 480.486 368.015 473.211 368.015 464.485V448.485C368.015 439.76 360.725 432.486 352 432.486H326.218L314.25 384.47H472C485.156 384.501 496.116 373.881 495.984 360.486V56.47C495.984 43.313 485.157 32.501 472 32.501H40.0153ZM40.0153 48.5012H472C476.569 48.5012 479.968 51.9004 479.968 56.47V320.516H31.9841V56.47C31.9841 51.9004 35.4456 48.5012 40.0153 48.5012ZM31.9841 336.517H479.968V360.486C479.968 365.056 476.569 368.454 472 368.454C327.861 368.394 184.146 368.454 40.0153 368.454C35.4456 368.454 31.9841 365.055 31.9841 360.486V336.517ZM214.25 384.47H297.765L309.781 432.486H202.25L214.25 384.47ZM160.015 448.485C224.067 448.667 288.518 448.485 352 448.485V464.485H160.015V448.485Z" fill="black"/>
</svg>
