<svg width="512" height="512" viewBox="0 0 512 512" fill="none" xmlns="http://www.w3.org/2000/svg">
<path d="M384.806 295.437C378.972 295.438 373.268 293.709 368.416 290.468C363.564 287.227 359.782 282.621 357.549 277.23C355.316 271.84 354.731 265.909 355.869 260.186C357.007 254.464 359.816 249.207 363.942 245.081C368.068 240.956 373.324 238.146 379.047 237.008C384.769 235.87 390.701 236.455 396.091 238.688C401.481 240.922 406.088 244.703 409.329 249.555C412.57 254.407 414.299 260.111 414.298 265.946C414.289 273.765 411.179 281.261 405.65 286.79C400.122 292.319 392.625 295.428 384.806 295.437ZM384.806 249.248C381.504 249.247 378.275 250.225 375.528 252.059C372.781 253.893 370.64 256.5 369.375 259.551C368.11 262.602 367.779 265.96 368.422 269.199C369.066 272.439 370.656 275.414 372.991 277.75C375.326 280.086 378.301 281.677 381.54 282.322C384.779 282.967 388.137 282.636 391.188 281.373C394.24 280.109 396.848 277.969 398.683 275.223C400.518 272.477 401.498 269.248 401.498 265.946C401.494 261.519 399.735 257.275 396.606 254.145C393.476 251.014 389.233 249.253 384.806 249.248Z" fill="black"/>
<path d="M127.405 295.437C121.57 295.437 115.867 293.707 111.016 290.465C106.165 287.224 102.384 282.616 100.152 277.226C97.9196 271.836 97.3358 265.904 98.4745 260.182C99.6132 254.46 102.423 249.204 106.549 245.079C110.675 240.954 115.932 238.145 121.654 237.008C127.376 235.87 133.308 236.455 138.697 238.689C144.087 240.922 148.694 244.704 151.934 249.556C155.175 254.408 156.904 260.111 156.902 265.946C156.894 273.766 153.783 281.263 148.253 286.792C142.723 292.321 135.225 295.43 127.405 295.437ZM127.405 249.248C124.102 249.248 120.874 250.227 118.128 252.062C115.382 253.897 113.242 256.505 111.978 259.556C110.714 262.607 110.384 265.964 111.028 269.203C111.672 272.442 113.263 275.417 115.598 277.753C117.933 280.088 120.908 281.678 124.147 282.322C127.386 282.967 130.744 282.636 133.795 281.372C136.846 280.108 139.454 277.968 141.288 275.222C143.123 272.476 144.102 269.248 144.102 265.946C144.097 261.519 142.336 257.275 139.206 254.144C136.076 251.014 131.832 249.253 127.405 249.248Z" fill="black"/>
<path d="M341.325 309.062H172.762C171.622 309.061 170.502 308.756 169.52 308.178C168.538 307.599 167.728 306.769 167.174 305.772C166.62 304.776 166.342 303.65 166.369 302.51C166.396 301.37 166.727 300.258 167.328 299.29L186.099 269.005C186.674 268.08 187.475 267.317 188.427 266.789C189.379 266.26 190.45 265.983 191.539 265.984H322.56C323.649 265.983 324.72 266.26 325.672 266.789C326.624 267.317 327.425 268.08 328 269.005L346.778 299.29C347.379 300.259 347.71 301.371 347.737 302.512C347.764 303.652 347.485 304.779 346.93 305.775C346.376 306.772 345.565 307.602 344.581 308.18C343.598 308.758 342.478 309.063 341.338 309.062H341.325ZM184.262 296.262H329.824L318.989 278.784H195.098L184.262 296.262Z" fill="black"/>
<path d="M358.01 332.301H152.736C151.039 332.301 149.411 331.627 148.211 330.426C147.01 329.226 146.336 327.598 146.336 325.901C146.336 324.203 147.01 322.576 148.211 321.375C149.411 320.175 151.039 319.501 152.736 319.501H358.01C359.707 319.501 361.335 320.175 362.535 321.375C363.735 322.576 364.41 324.203 364.41 325.901C364.41 327.598 363.735 329.226 362.535 330.426C361.335 331.627 359.707 332.301 358.01 332.301Z" fill="black"/>
<path d="M422.893 360.211H89.3184C82.7012 360.203 76.3574 357.57 71.6784 352.891C66.9993 348.212 64.3669 341.868 64.3584 335.251V277.875C64.3855 260.367 71.3541 243.583 83.7364 231.204C96.1187 218.826 112.904 211.862 130.413 211.84H381.792C399.302 211.86 416.09 218.823 428.475 231.202C440.86 243.58 447.83 260.365 447.859 277.875V335.245C447.852 341.864 445.22 348.211 440.539 352.891C435.859 357.572 429.512 360.204 422.893 360.211ZM130.413 224.64C116.292 224.655 102.754 230.272 92.7686 240.257C82.7835 250.242 77.1672 263.78 77.152 277.901V335.27C77.152 338.495 78.4331 341.588 80.7136 343.869C82.994 346.149 86.087 347.43 89.312 347.43H422.893C426.118 347.43 429.211 346.149 431.491 343.869C433.772 341.588 435.053 338.495 435.053 335.27V277.875C435.029 263.759 429.409 250.229 419.425 240.249C409.441 230.27 395.908 224.657 381.792 224.64H130.413Z" fill="black"/>
<path d="M405.965 391.085H371.334C367.536 391.08 363.894 389.568 361.207 386.882C358.521 384.196 357.01 380.554 357.005 376.755V353.811C357.005 352.114 357.679 350.486 358.879 349.286C360.08 348.085 361.707 347.411 363.405 347.411H413.894C415.592 347.411 417.22 348.085 418.42 349.286C419.62 350.486 420.294 352.114 420.294 353.811V376.755C420.289 380.554 418.778 384.196 416.092 386.882C413.406 389.568 409.764 391.08 405.965 391.085ZM369.805 360.211V376.755C369.807 377.16 369.968 377.548 370.255 377.835C370.541 378.121 370.929 378.283 371.334 378.285H405.965C406.37 378.283 406.758 378.121 407.045 377.835C407.331 377.548 407.493 377.16 407.494 376.755V360.211H369.805Z" fill="black"/>
<path d="M140.877 391.085H106.24C102.441 391.081 98.7978 389.571 96.1112 386.884C93.4246 384.197 91.9138 380.555 91.9104 376.755V353.811C91.9104 352.114 92.5847 350.486 93.7849 349.286C94.9852 348.085 96.613 347.411 98.3104 347.411H148.8C150.497 347.411 152.125 348.085 153.325 349.286C154.526 350.486 155.2 352.114 155.2 353.811V376.755C155.197 380.553 153.687 384.195 151.001 386.882C148.316 389.568 144.675 391.08 140.877 391.085ZM104.717 360.211V376.755C104.717 377.161 104.878 377.55 105.165 377.837C105.452 378.124 105.841 378.285 106.246 378.285H140.877C141.077 378.285 141.276 378.245 141.461 378.168C141.646 378.091 141.815 377.979 141.956 377.836C142.098 377.694 142.21 377.526 142.286 377.34C142.362 377.155 142.401 376.956 142.4 376.755V360.211H104.717Z" fill="black"/>
<path d="M407.296 230.33C406.048 230.333 404.826 229.971 403.781 229.289C402.736 228.606 401.914 227.633 401.414 226.49L367.891 149.12C364.742 144.366 360.462 140.468 355.436 137.775C350.41 135.082 344.794 133.678 339.091 133.69H173.139C167.437 133.681 161.822 135.086 156.796 137.779C151.771 140.472 147.491 144.368 144.339 149.12L110.797 226.464C110.47 227.246 109.992 227.956 109.389 228.552C108.786 229.148 108.07 229.619 107.284 229.936C106.498 230.253 105.656 230.411 104.809 230.4C103.961 230.389 103.124 230.21 102.346 229.873C101.568 229.536 100.865 229.048 100.277 228.437C99.6892 227.825 99.2288 227.104 98.9224 226.313C98.616 225.523 98.4698 224.679 98.4922 223.831C98.5146 222.984 98.7051 222.149 99.0528 221.376L132.781 143.552C132.924 143.229 133.091 142.917 133.28 142.618C137.569 135.946 143.469 130.462 150.434 126.669C157.4 122.877 165.208 120.898 173.139 120.915H339.072C347.003 120.898 354.811 122.877 361.776 126.671C368.74 130.465 374.638 135.951 378.925 142.624C379.117 142.918 379.284 143.229 379.424 143.552L413.165 221.389C413.59 222.363 413.766 223.428 413.676 224.487C413.587 225.546 413.235 226.566 412.653 227.456C412.07 228.345 411.276 229.075 410.341 229.58C409.405 230.085 408.359 230.349 407.296 230.349V230.33Z" fill="black"/>
<path d="M419.341 223.11H402.624C400.927 223.11 399.299 222.436 398.099 221.236C396.898 220.036 396.224 218.408 396.224 216.71C396.224 215.013 396.898 213.385 398.099 212.185C399.299 210.985 400.927 210.31 402.624 210.31H419.341C421.038 210.31 422.666 210.985 423.866 212.185C425.066 213.385 425.741 215.013 425.741 216.71C425.741 218.408 425.066 220.036 423.866 221.236C422.666 222.436 421.038 223.11 419.341 223.11Z" fill="black"/>
<path d="M458.688 223.104H419.341C417.643 223.104 416.016 222.43 414.815 221.229C413.615 220.029 412.941 218.401 412.941 216.704V188.416C412.941 186.719 413.615 185.091 414.815 183.891C416.016 182.69 417.643 182.016 419.341 182.016H450.56C455.155 182.021 459.56 183.849 462.809 187.098C466.059 190.347 467.886 194.752 467.891 199.347V213.914C467.888 216.352 466.917 218.69 465.191 220.413C463.466 222.136 461.127 223.104 458.688 223.104ZM425.741 210.304H455.085V199.347C455.083 198.146 454.605 196.994 453.756 196.145C452.906 195.296 451.755 194.818 450.554 194.816H425.741V210.304Z" fill="black"/>
<path d="M109.376 223.11H92.6592C90.9618 223.11 89.334 222.436 88.1337 221.236C86.9335 220.036 86.2592 218.408 86.2592 216.71C86.2592 215.013 86.9335 213.385 88.1337 212.185C89.334 210.985 90.9618 210.31 92.6592 210.31H109.376C111.073 210.31 112.701 210.985 113.902 212.185C115.102 213.385 115.776 215.013 115.776 216.71C115.776 218.408 115.102 220.036 113.902 221.236C112.701 222.436 111.073 223.11 109.376 223.11Z" fill="black"/>
<path d="M92.6592 223.104H53.312C50.8745 223.102 48.5372 222.134 46.813 220.411C45.0888 218.688 44.1186 216.351 44.1152 213.914V199.347C44.1203 194.753 45.947 190.349 49.1947 187.1C52.4425 183.851 56.8462 182.023 61.44 182.016H92.6528C94.3502 182.016 95.9781 182.69 97.1783 183.891C98.3785 185.091 99.0528 186.719 99.0528 188.416V216.704C99.0528 218.4 98.3794 220.027 97.1805 221.227C95.9817 222.427 94.3555 223.102 92.6592 223.104ZM56.9152 210.304H86.2592V194.816H61.44C60.2388 194.818 59.0872 195.296 58.2378 196.145C57.3884 196.994 56.9105 198.146 56.9088 199.347L56.9152 210.304Z" fill="black"/>
</svg>
