<svg width="512" height="512" viewBox="0 0 512 512" fill="none" xmlns="http://www.w3.org/2000/svg">
<path d="M416 234.664C410.129 234.664 404.437 235.383 398.855 236.397L365.187 124.174L419.375 106.111C424.958 104.257 427.979 98.215 426.115 92.621C424.25 87.038 418.25 84.027 412.625 85.881L348.625 107.214C343.156 109.037 340.125 114.87 341.781 120.391L356.862 170.662H198.594L177.261 127.995H202.667C208.563 127.995 213.334 123.224 213.334 117.328C213.334 111.432 208.563 106.661 202.667 106.661H138.667C132.771 106.661 128 111.432 128 117.328C128 123.224 132.771 127.995 138.667 127.995H153.407L179.746 180.671L138.407 244.974C125.562 238.586 111.294 234.661 96.001 234.661C43.063 234.661 0.00100708 277.724 0.00100708 330.661C0.00100708 383.598 43.064 426.661 96.001 426.661C145.286 426.661 185.537 389.196 190.923 341.328H225.966C230.384 353.717 242.113 362.661 256.001 362.661C273.647 362.661 288.001 348.307 288.001 330.661C288.001 324.27 286.071 318.342 282.832 313.341L366.953 204.293L378.377 242.375C344.095 257.043 320 291.078 320 330.664C320 383.602 363.063 426.664 416 426.664C468.937 426.664 512 383.601 512 330.664C512 277.727 468.938 234.664 416 234.664ZM96 405.331C54.833 405.331 21.333 371.831 21.333 330.664C21.333 289.497 54.833 255.997 96 255.997C107.046 255.997 117.451 258.561 126.893 262.885L87.031 324.893C84.916 328.174 84.771 332.351 86.635 335.778C88.51 339.195 92.093 341.33 96 341.33H169.589C164.357 377.419 133.514 405.331 96 405.331ZM115.542 319.997L144.744 274.569C157.929 286.042 166.967 301.908 169.589 319.997H115.542ZM225.965 319.997H190.922C188.046 294.424 175.27 272.054 156.305 256.583L190.839 202.862L240.76 302.703C233.913 306.452 228.618 312.556 225.965 319.997ZM256 341.331C250.115 341.331 245.333 336.55 245.333 330.664C245.333 324.779 250.114 319.997 256 319.997C261.886 319.997 266.667 324.778 266.667 330.664C266.667 336.55 261.885 341.331 256 341.331ZM265.885 300.387C264.931 300.074 264 299.714 263.007 299.491L209.26 191.997H349.5L265.885 300.387ZM416 405.331C374.833 405.331 341.333 371.831 341.333 330.664C341.333 300.745 359.136 275.059 384.609 263.156L405.781 333.726C407.166 338.351 411.406 341.33 416 341.33C417.01 341.33 418.042 341.184 419.063 340.882C424.709 339.184 427.907 333.236 426.219 327.601L405.068 257.102C408.666 256.567 412.257 255.997 416 255.997C457.167 255.997 490.667 289.497 490.667 330.664C490.667 371.831 457.167 405.331 416 405.331Z" fill="black"/>
</svg>
