<svg width="512" height="512" viewBox="0 0 512 512" fill="none" xmlns="http://www.w3.org/2000/svg">
<g clip-path="url(#clip0_3_77)">
<path d="M373.081 127.082L363.218 72.8468C362.508 68.9202 359.089 66.0654 355.096 66.0654H156.903C152.909 66.0654 149.491 68.9202 148.781 72.8492L139.008 126.599C138.186 131.081 141.161 135.384 145.654 136.199C150.161 137.005 154.442 134.037 155.25 129.549L163.799 82.5811H348.201L356.837 130.034C357.556 134.021 361.032 136.816 364.95 136.816C365.444 136.816 365.935 136.77 366.435 136.682C370.927 135.867 373.903 131.566 373.081 127.082Z" fill="black"/>
<path d="M470.652 123.871H41.3456C18.548 123.871 0 142.376 0 165.117V404.688C0 427.431 18.548 445.936 41.3456 445.936H470.654C493.453 445.936 512 427.431 512 404.691V165.117C512 142.376 493.453 123.871 470.652 123.871ZM495.482 404.688C495.482 418.326 484.346 429.419 470.652 429.419H41.3456C27.6532 429.419 16.5157 418.326 16.5157 404.691V165.117C16.5157 151.48 27.6532 140.387 41.3456 140.387H470.654C484.347 140.387 495.484 151.48 495.482 165.117V404.688Z" fill="black"/>
<path d="M256.001 156.904C183.145 156.904 123.871 216.178 123.871 289.033C123.871 361.889 183.145 421.163 256.001 421.163C328.856 421.163 388.13 361.889 388.13 289.033C388.13 216.178 328.855 156.904 256.001 156.904ZM256.001 404.646C192.251 404.646 140.388 352.783 140.388 289.033C140.388 225.283 192.251 173.421 256.001 173.421C319.751 173.421 371.613 225.283 371.613 289.033C371.613 352.782 319.751 404.646 256.001 404.646Z" fill="black"/>
<path d="M256.001 189.935C201.355 189.935 156.904 234.391 156.904 289.032C156.904 343.673 201.355 388.129 256.001 388.129C310.647 388.129 355.097 343.673 355.097 289.032C355.097 234.391 310.645 189.935 256.001 189.935ZM256.001 371.613C210.467 371.613 173.419 334.569 173.419 289.032C173.419 243.495 210.467 206.451 256.001 206.451C301.534 206.451 338.582 243.495 338.582 289.032C338.581 334.569 301.533 371.613 256.001 371.613Z" fill="black"/>
<path d="M256.001 222.968C219.572 222.968 189.936 252.604 189.936 289.032C189.936 293.593 193.63 297.291 198.195 297.291C202.76 297.291 206.453 293.593 206.453 289.032C206.453 261.71 228.68 239.484 256.002 239.484C260.566 239.484 264.26 235.786 264.26 231.225C264.26 226.665 260.565 222.968 256.001 222.968Z" fill="black"/>
<path d="M115.613 90.8384H57.8069C53.2428 90.8384 49.5484 94.5364 49.5484 99.0968V132.13C49.5484 136.69 53.2416 140.388 57.8069 140.388H115.614C120.178 140.388 123.872 136.69 123.872 132.13V99.0968C123.871 94.5364 120.178 90.8384 115.613 90.8384ZM107.355 123.871H66.0642V107.355H107.354L107.355 123.871Z" fill="black"/>
<path d="M445.936 148.645C427.718 148.645 412.903 163.464 412.903 181.678C412.903 199.892 427.718 214.711 445.936 214.711C464.154 214.711 478.969 199.892 478.969 181.678C478.969 163.464 464.154 148.645 445.936 148.645ZM445.936 198.194C436.832 198.194 429.42 190.787 429.42 181.678C429.42 172.569 436.832 165.162 445.936 165.162C455.04 165.162 462.452 172.57 462.452 181.678C462.452 190.786 455.04 198.194 445.936 198.194Z" fill="black"/>
</g>
<defs>
<clipPath id="clip0_3_77">
<rect width="512" height="512" fill="white"/>
</clipPath>
</defs>
</svg>
