<svg width="512" height="512" viewBox="0 0 512 512" fill="none" xmlns="http://www.w3.org/2000/svg">
<g clip-path="url(#clip0_3_100)">
<path d="M511.384 336.047L491.939 169.955C487.224 129.679 448.089 95.6513 406.481 95.6513H105.518C63.9099 95.6513 24.7757 129.679 20.0596 169.955L0.617161 336.047C-1.39513 353.238 1.54893 370.24 8.90556 383.922C17.1668 399.283 30.2809 409.746 46.8295 414.181C52.2442 415.631 57.7394 416.349 63.2043 416.349C74.4418 416.349 85.5476 413.314 95.5538 407.382C109.892 398.879 120.785 385.181 126.225 368.813L143.517 316.782H147.591C152.066 334.104 167.824 346.937 186.524 346.937C205.224 346.937 220.983 334.104 225.458 316.782H286.542C291.017 334.104 306.775 346.937 325.475 346.937C344.175 346.937 359.934 334.104 364.409 316.782H368.482L385.774 368.813C391.215 385.181 402.108 398.879 416.446 407.382C431.316 416.199 448.621 418.614 465.17 414.181C481.72 409.747 494.834 399.284 503.093 383.922C510.451 370.241 513.395 353.238 511.384 336.047ZM186.524 326.834C175.439 326.834 166.421 317.815 166.421 306.73C166.421 295.645 175.439 286.627 186.524 286.627C197.609 286.627 206.628 295.645 206.628 306.73C206.628 317.815 197.61 326.834 186.524 326.834ZM325.476 326.834C314.391 326.834 305.373 317.815 305.373 306.73C305.373 295.645 314.391 286.627 325.476 286.627C336.561 286.627 345.58 295.645 345.58 306.73C345.58 317.815 336.561 326.834 325.476 326.834ZM459.968 394.762C436.731 400.988 413.039 387.106 404.851 362.471L385.272 303.561C383.907 299.453 380.063 296.68 375.734 296.68H364.41C359.935 279.358 344.177 266.524 325.476 266.524C306.776 266.524 291.017 279.358 286.543 296.68H225.459C220.984 279.358 205.226 266.524 186.525 266.524C167.825 266.524 152.066 279.358 147.592 296.68H136.267C131.937 296.68 128.094 299.453 126.729 303.561L107.15 362.471C98.9622 387.106 75.264 400.984 52.0342 394.762C26.5498 387.934 17.8764 361.527 20.5863 338.385L40.0298 172.293C43.5548 142.174 74.1583 115.754 105.52 115.754H180.617V166.01C180.617 182.634 194.141 196.161 210.765 196.164H210.767C216.316 196.164 220.818 191.665 220.819 186.115C220.82 180.564 216.32 176.063 210.769 176.062C205.228 176.061 200.72 171.552 200.72 166.01V115.754H311.282V166.01C311.282 171.553 306.773 176.062 301.231 176.062H301.228C295.677 176.062 291.177 180.563 291.177 186.113C291.177 191.663 295.679 196.164 301.231 196.164C317.858 196.164 331.385 182.637 331.385 166.01V115.754H406.481C437.843 115.754 468.446 142.174 471.971 172.293L491.416 338.384C494.126 361.527 485.452 387.934 459.968 394.762Z" fill="black"/>
<path d="M141.716 186.116C141.715 169.489 128.188 155.962 111.561 155.962C94.9336 155.962 81.4064 169.489 81.4064 186.116C64.7794 186.116 51.2522 199.643 51.2522 216.27C51.2522 232.897 64.7794 246.425 81.4064 246.425C81.4064 263.052 94.9336 276.579 111.561 276.579C128.188 276.579 141.715 263.052 141.715 246.425C158.342 246.425 171.869 232.897 171.869 216.27C171.869 199.643 158.343 186.116 141.716 186.116ZM141.716 226.322H131.663C126.113 226.322 121.612 230.823 121.612 236.373V246.425C121.612 251.967 117.103 256.476 111.561 256.476C106.018 256.476 101.509 251.967 101.509 246.425V236.373C101.509 230.823 97.0082 226.322 91.4578 226.322H81.4064C75.8641 226.322 71.355 221.813 71.355 216.27C71.355 210.728 75.8641 206.219 81.4064 206.219H91.4578C97.0082 206.219 101.509 201.718 101.509 196.167V186.116C101.509 180.574 106.018 176.065 111.561 176.065C117.103 176.065 121.612 180.574 121.612 186.116V196.167C121.612 201.718 126.113 206.219 131.663 206.219H141.716C147.258 206.219 151.766 210.728 151.766 216.27C151.766 221.813 147.258 226.322 141.716 226.322Z" fill="black"/>
<path d="M430.594 186.116C430.594 169.489 417.066 155.962 400.439 155.962C383.812 155.962 370.285 169.489 370.285 186.116C353.658 186.116 340.131 199.643 340.131 216.27C340.131 232.897 353.658 246.425 370.285 246.425C370.285 263.052 383.812 276.579 400.439 276.579C417.066 276.579 430.594 263.052 430.594 246.425C447.221 246.425 460.748 232.897 460.748 216.27C460.748 199.643 447.221 186.116 430.594 186.116ZM430.594 226.322H420.542C414.992 226.322 410.491 230.823 410.491 236.373V246.425C410.491 251.967 405.982 256.476 400.439 256.476C394.897 256.476 390.388 251.967 390.388 246.425V236.373C390.388 230.823 385.887 226.322 380.336 226.322H370.285C364.743 226.322 360.234 221.813 360.234 216.27C360.234 210.728 364.743 206.219 370.285 206.219H380.336C385.887 206.219 390.388 201.718 390.388 196.167V186.116C390.388 180.574 394.897 176.065 400.439 176.065C405.982 176.065 410.491 180.574 410.491 186.116V196.167C410.491 201.718 414.992 206.219 420.542 206.219H430.594C436.136 206.219 440.645 210.728 440.645 216.27C440.645 221.813 436.135 226.322 430.594 226.322Z" fill="black"/>
<path d="M284.948 216.269H227.051C221.501 216.269 217 220.77 217 226.321C217 231.871 221.501 236.372 227.051 236.372H284.948C290.498 236.372 294.999 231.871 294.999 226.321C294.999 220.77 290.499 216.269 284.948 216.269Z" fill="black"/>
<path d="M268.55 256.476H243.451C237.901 256.476 233.4 260.977 233.4 266.527C233.4 272.078 237.901 276.579 243.451 276.579H268.55C274.1 276.579 278.601 272.078 278.601 266.527C278.601 260.977 274.1 256.476 268.55 256.476Z" fill="black"/>
<path d="M256 196.164C261.55 196.164 266.051 191.663 266.051 186.113C266.051 180.563 261.55 176.062 256 176.062H255.992C250.442 176.062 245.945 180.563 245.945 186.113C245.945 191.663 250.449 196.164 256 196.164Z" fill="black"/>
</g>
<defs>
<clipPath id="clip0_3_100">
<rect width="512" height="512" fill="white"/>
</clipPath>
</defs>
</svg>
