<svg width="512" height="512" viewBox="0 0 512 512" fill="none" xmlns="http://www.w3.org/2000/svg">
<path d="M296.64 460C296.081 460 295.527 459.882 295.016 459.655C294.505 459.427 294.047 459.095 293.672 458.68L266.4 428.408C259.497 429.04 252.551 429.04 245.648 428.408L218.352 458.68C217.859 459.226 217.224 459.626 216.519 459.835C215.813 460.044 215.063 460.054 214.352 459.864C202.296 456.582 190.696 451.806 179.824 445.648C179.175 445.282 178.64 444.743 178.281 444.09C177.922 443.437 177.753 442.696 177.792 441.952L179.928 401.152C174.531 396.726 169.577 391.785 165.136 386.4L124.336 388.464C123.595 388.52 122.854 388.361 122.202 388.004C121.551 387.648 121.016 387.11 120.664 386.456C114.403 375.601 109.563 363.986 106.264 351.896C106.075 351.184 106.087 350.434 106.297 349.728C106.507 349.022 106.908 348.388 107.456 347.896L137.856 320.576C137.544 317.118 137.408 313.647 137.448 310.176C137.448 309.115 137.869 308.098 138.62 307.348C139.37 306.597 140.387 306.176 141.448 306.176H201.848C202.909 306.176 203.926 306.597 204.676 307.348C205.427 308.098 205.848 309.115 205.848 310.176C205.848 323.469 211.128 336.217 220.528 345.616C229.927 355.016 242.675 360.296 255.968 360.296C269.261 360.296 282.009 355.016 291.408 345.616C300.808 336.217 306.088 323.469 306.088 310.176C306.088 309.115 306.509 308.098 307.26 307.348C308.01 306.597 309.027 306.176 310.088 306.176H370.648C371.709 306.176 372.726 306.597 373.476 307.348C374.227 308.098 374.648 309.115 374.648 310.176C374.677 313.649 374.514 317.121 374.16 320.576L404.56 347.896C405.108 348.388 405.509 349.022 405.719 349.728C405.929 350.434 405.941 351.184 405.752 351.896C402.452 363.961 397.649 375.564 391.456 386.432C391.091 387.08 390.553 387.614 389.901 387.973C389.25 388.332 388.511 388.502 387.768 388.464L346.864 386.4C342.44 391.688 337.551 396.569 332.256 400.984L334.392 441.936C334.431 442.683 334.26 443.426 333.898 444.081C333.536 444.736 332.998 445.276 332.344 445.64C321.408 451.764 309.768 456.535 297.68 459.848C297.341 459.942 296.992 459.993 296.64 460ZM185.88 439.872C194.826 444.739 204.27 448.631 214.048 451.48L241.032 421.56C241.452 421.094 241.975 420.733 242.56 420.506C243.146 420.28 243.776 420.194 244.4 420.256C252.111 421.096 259.889 421.096 267.6 420.256C268.224 420.194 268.854 420.28 269.44 420.506C270.025 420.733 270.548 421.094 270.968 421.56L297.952 451.48C307.772 448.606 317.264 444.71 326.272 439.856L324.168 399.408C324.136 398.781 324.251 398.155 324.506 397.581C324.76 397.007 325.146 396.501 325.632 396.104C331.622 391.274 337.079 385.819 341.912 379.832C342.3 379.326 342.806 378.924 343.387 378.662C343.968 378.4 344.604 378.285 345.24 378.328L385.632 380.36C390.537 371.422 394.456 361.977 397.32 352.192L367.248 325.136C366.759 324.695 366.386 324.14 366.163 323.521C365.939 322.901 365.872 322.236 365.968 321.584C366.311 319.123 366.514 316.644 366.576 314.16H313.944C312.995 328.898 306.472 342.722 295.699 352.823C284.927 362.925 270.712 368.547 255.944 368.547C241.176 368.547 226.961 362.925 216.189 352.823C205.416 342.722 198.893 328.898 197.944 314.16H145.48C145.514 316.644 145.699 319.123 146.032 321.584C146.128 322.236 146.061 322.901 145.837 323.521C145.614 324.14 145.241 324.695 144.752 325.136L114.68 352.192C117.531 361.987 121.462 371.434 126.4 380.36L166.728 378.328C167.364 378.282 168.002 378.395 168.583 378.658C169.164 378.921 169.67 379.324 170.056 379.832C174.87 385.88 180.368 391.351 186.44 396.136C186.945 396.531 187.347 397.042 187.613 397.626C187.879 398.209 188.001 398.848 187.968 399.488L185.88 439.872Z" fill="black"/>
<path d="M400.56 143.04V151.36H385.44L383.6 143.04H400.56Z" fill="black"/>
<path d="M128.4 143.04L126.56 151.36H111.44V143.04H128.4Z" fill="black"/>
<path d="M439.44 288.96H72.56C71.4991 288.96 70.4817 288.539 69.7316 287.788C68.9814 287.038 68.56 286.021 68.56 284.96V231.52C68.5748 218.476 73.7631 205.97 82.9867 196.747C92.2103 187.523 104.716 182.335 117.76 182.32H394.24C407.284 182.335 419.79 187.523 429.013 196.747C438.237 205.97 443.425 218.476 443.44 231.52V284.96C443.44 286.021 443.019 287.038 442.268 287.788C441.518 288.539 440.501 288.96 439.44 288.96ZM76.56 280.96H435.44V231.52C435.429 220.596 431.085 210.123 423.361 202.399C415.637 194.675 405.164 190.331 394.24 190.32H117.76C106.836 190.331 96.3631 194.675 88.6389 202.399C80.9147 210.123 76.5706 220.596 76.56 231.52V280.96Z" fill="black"/>
<path d="M172.272 262.12H124.568C121.962 262.129 119.439 261.202 117.458 259.508C115.477 257.813 114.171 255.464 113.776 252.888L111.256 236.888C111.012 235.328 111.109 233.735 111.54 232.216C111.971 230.698 112.725 229.29 113.751 228.091C114.777 226.891 116.051 225.928 117.484 225.268C118.918 224.607 120.478 224.265 122.056 224.264H166.664C168.927 224.266 171.134 224.969 172.981 226.277C174.827 227.585 176.223 229.434 176.976 231.568L182.576 247.568C183.155 249.215 183.331 250.977 183.089 252.707C182.847 254.436 182.194 256.082 181.185 257.507C180.176 258.932 178.84 260.095 177.289 260.897C175.739 261.7 174.018 262.119 172.272 262.12ZM122.056 232.28C121.633 232.279 121.215 232.37 120.83 232.547C120.446 232.724 120.104 232.983 119.83 233.304C119.555 233.626 119.354 234.004 119.239 234.411C119.125 234.819 119.101 235.246 119.168 235.664L121.68 251.664C121.785 252.354 122.135 252.983 122.665 253.436C123.195 253.89 123.87 254.138 124.568 254.136H172.272C172.74 254.134 173.2 254.021 173.615 253.805C174.03 253.589 174.388 253.277 174.658 252.895C174.928 252.513 175.102 252.072 175.168 251.609C175.233 251.146 175.186 250.674 175.032 250.232L169.432 234.232C169.23 233.661 168.856 233.167 168.362 232.817C167.868 232.468 167.277 232.28 166.672 232.28H122.056Z" fill="black"/>
<path d="M387.432 262.12H339.728C337.982 262.119 336.261 261.7 334.711 260.897C333.16 260.095 331.824 258.932 330.815 257.507C329.806 256.082 329.153 254.436 328.911 252.707C328.669 250.977 328.845 249.215 329.424 247.568L335.024 231.568C335.777 229.434 337.173 227.585 339.019 226.277C340.866 224.969 343.073 224.266 345.336 224.264H389.944C391.522 224.265 393.082 224.607 394.516 225.268C395.949 225.928 397.223 226.891 398.249 228.091C399.275 229.29 400.029 230.698 400.46 232.216C400.891 233.735 400.988 235.328 400.744 236.888L398.224 252.888C397.829 255.464 396.523 257.813 394.542 259.508C392.561 261.202 390.038 262.129 387.432 262.12ZM345.336 232.28C344.731 232.28 344.14 232.468 343.646 232.817C343.152 233.167 342.778 233.661 342.576 234.232L336.976 250.232C336.822 250.674 336.775 251.146 336.84 251.609C336.906 252.072 337.08 252.513 337.35 252.895C337.62 253.277 337.978 253.589 338.393 253.805C338.808 254.021 339.268 254.134 339.736 254.136H387.44C388.139 254.137 388.816 253.887 389.347 253.432C389.878 252.977 390.229 252.347 390.336 251.656L392.84 235.656C392.907 235.238 392.883 234.811 392.769 234.403C392.654 233.996 392.453 233.618 392.178 233.296C391.904 232.975 391.562 232.716 391.178 232.539C390.793 232.362 390.375 232.271 389.952 232.272L345.336 232.28Z" fill="black"/>
<path d="M393.128 190.312H118.872C118.273 190.312 117.681 190.177 117.141 189.918C116.6 189.659 116.125 189.281 115.75 188.813C115.376 188.346 115.111 187.8 114.975 187.216C114.84 186.632 114.837 186.025 114.968 185.44L138.4 79.76C140.107 71.8669 144.476 64.8007 150.774 59.7464C157.072 54.6921 164.917 51.9571 172.992 52H339.008C347.083 51.9571 354.928 54.6921 361.226 59.7464C367.524 64.8007 371.893 71.8669 373.6 79.76L397.032 185.44C397.163 186.025 397.16 186.632 397.025 187.216C396.889 187.8 396.624 188.346 396.25 188.813C395.875 189.281 395.4 189.659 394.859 189.918C394.319 190.177 393.727 190.312 393.128 190.312ZM123.856 182.312H388.144L365.744 81.512C364.429 75.4047 361.055 69.9348 356.188 66.0185C351.321 62.1022 345.255 59.9774 339.008 60H172.992C166.74 59.9674 160.667 62.0858 155.792 65.9997C150.917 69.9136 147.536 75.3849 146.216 81.496L123.856 182.312Z" fill="black"/>
<path d="M378.968 190.312H133.032C132.433 190.312 131.843 190.177 131.303 189.918C130.763 189.659 130.289 189.283 129.914 188.816C129.539 188.349 129.274 187.804 129.138 187.221C129.002 186.638 128.999 186.032 129.128 185.448L148.8 96.536C150.714 87.6698 155.618 79.731 162.689 74.0505C169.76 68.37 178.57 65.2933 187.64 65.336H324.336C333.406 65.2933 342.216 68.37 349.287 74.0505C356.359 79.731 361.262 87.6698 363.176 96.536L382.872 185.448C383.001 186.032 382.998 186.638 382.862 187.221C382.726 187.804 382.461 188.349 382.086 188.816C381.711 189.283 381.237 189.659 380.697 189.918C380.157 190.177 379.567 190.312 378.968 190.312ZM138.016 182.312H374.016L355.36 98.264C353.828 91.185 349.91 84.8475 344.262 80.3135C338.614 75.7796 331.579 73.3246 324.336 73.36H187.664C180.42 73.325 173.384 75.7811 167.736 80.3166C162.088 84.8522 158.17 91.1915 156.64 98.272L138.016 182.312Z" fill="black"/>
<path d="M440.8 314.16H71.2C66.7974 314.16 62.5751 312.411 59.462 309.298C56.3489 306.185 54.6 301.963 54.6 297.56C54.6 293.157 56.3489 288.935 59.462 285.822C62.5751 282.709 66.7974 280.96 71.2 280.96H440.8C445.203 280.96 449.425 282.709 452.538 285.822C455.651 288.935 457.4 293.157 457.4 297.56C457.4 301.963 455.651 306.185 452.538 309.298C449.425 312.411 445.203 314.16 440.8 314.16ZM71.2 288.96C68.9191 288.96 66.7317 289.866 65.1189 291.479C63.5061 293.092 62.6 295.279 62.6 297.56C62.6 299.841 63.5061 302.028 65.1189 303.641C66.7317 305.254 68.9191 306.16 71.2 306.16H440.8C443.081 306.16 445.268 305.254 446.881 303.641C448.494 302.028 449.4 299.841 449.4 297.56C449.4 295.279 448.494 293.092 446.881 291.479C445.268 289.866 443.081 288.96 440.8 288.96H71.2Z" fill="black"/>
<path d="M215.606 103.016C217.415 101.207 217.415 98.2742 215.606 96.4653C213.797 94.6564 210.864 94.6564 209.055 96.4653L180.692 124.829C178.883 126.638 178.883 129.57 180.692 131.379C182.501 133.188 185.434 133.188 187.243 131.379L215.606 103.016Z" fill="black"/>
<path d="M213.425 117.372L213.323 117.271C211.542 115.49 208.655 115.49 206.874 117.271L189.954 134.19C188.173 135.971 188.173 138.858 189.954 140.639L190.056 140.741C191.837 142.522 194.724 142.522 196.505 140.741L213.425 123.821C215.205 122.04 215.205 119.153 213.425 117.372Z" fill="black"/>
<path d="M444.4 164.32H406.96C404.192 164.305 401.544 163.194 399.594 161.229C397.645 159.265 396.554 156.608 396.56 153.84V135.84C396.554 133.072 397.645 130.415 399.594 128.451C401.544 126.486 404.192 125.375 406.96 125.36H426.4C433.945 125.387 441.173 128.397 446.508 133.732C451.843 139.067 454.853 146.295 454.88 153.84C454.876 156.618 453.77 159.281 451.806 161.246C449.841 163.21 447.178 164.316 444.4 164.32ZM406.96 133.36C406.314 133.373 405.698 133.641 405.249 134.105C404.799 134.57 404.551 135.193 404.56 135.84V153.84C404.551 154.487 404.799 155.11 405.249 155.575C405.698 156.04 406.314 156.307 406.96 156.32H444.4C444.727 156.324 445.051 156.263 445.354 156.14C445.657 156.017 445.932 155.834 446.163 155.603C446.394 155.372 446.577 155.097 446.7 154.794C446.823 154.491 446.884 154.167 446.88 153.84C446.853 148.417 444.686 143.223 440.851 139.389C437.017 135.554 431.823 133.387 426.4 133.36H406.96Z" fill="black"/>
<path d="M105.04 164.32H67.6C64.8218 164.316 62.1587 163.21 60.1942 161.246C58.2297 159.281 57.1242 156.618 57.12 153.84C57.1432 146.294 60.1512 139.063 65.4872 133.727C70.8232 128.391 78.0538 125.383 85.6 125.36H105.04C107.808 125.375 110.456 126.486 112.406 128.451C114.355 130.415 115.446 133.072 115.44 135.84V153.84C115.446 156.608 114.355 159.265 112.406 161.229C110.456 163.194 107.808 164.305 105.04 164.32ZM85.6 133.36C80.1768 133.387 74.9835 135.554 71.1486 139.389C67.3138 143.223 65.1473 148.417 65.12 153.84C65.1157 154.167 65.1769 154.491 65.3 154.794C65.4231 155.097 65.6056 155.372 65.8368 155.603C66.0679 155.834 66.343 156.017 66.6459 156.14C66.9487 156.263 67.2731 156.324 67.6 156.32H105.04C105.686 156.307 106.302 156.04 106.751 155.575C107.201 155.11 107.449 154.487 107.44 153.84V135.84C107.449 135.193 107.201 134.57 106.751 134.105C106.302 133.641 105.686 133.373 105.04 133.36H85.6Z" fill="black"/>
</svg>
