<svg width="512" height="512" viewBox="0 0 512 512" fill="none" xmlns="http://www.w3.org/2000/svg">
<path d="M466.335 203.527H394.268L369.82 186.083C361.132 179.882 350.882 176.603 340.185 176.603H258.316V151.976C278.091 149.564 293.456 132.676 293.456 112.262V72.9555C293.456 71.8772 293.189 70.8142 292.68 69.8616L267.806 23.2166C264.632 17.2753 258.48 13.5831 251.748 13.5831H54.5076C47.7754 13.5831 41.6235 17.2753 38.45 23.2192L13.5754 69.8616C13.067 70.8142 12.8 71.8772 12.8 72.9555V112.262C12.8 132.671 28.157 149.556 47.9243 151.974V203.527H45.6649C27.543 203.527 12.8 218.27 12.8 236.391V465.552C12.8 483.674 27.543 498.417 45.6649 498.417H466.335C484.457 498.417 499.2 483.674 499.2 465.552V236.391C499.2 218.27 484.457 203.527 466.335 203.527ZM466.335 216.673C477.206 216.673 486.054 225.518 486.054 236.391V261.579H433.039L444.064 247.486C445.168 246.074 445.651 244.271 445.394 242.497C445.137 240.72 444.167 239.129 442.703 238.086L412.692 216.673H466.335ZM429.48 244.798L401.715 280.287L372.516 267.593C370.488 266.704 368.146 266.904 366.292 268.124C364.439 269.339 363.324 271.405 363.324 273.621V328.678L319.332 309.326C317.365 308.455 315.09 308.612 313.246 309.739C311.413 310.866 310.242 312.825 310.124 314.977L306.658 377.369H226.026V273.621C226.026 271.405 224.912 269.339 223.058 268.124C221.204 266.904 218.858 266.704 216.834 267.593L187.636 280.287L159.87 244.798L227.161 196.784C232.802 192.762 239.581 190.343 246.504 189.846C246.277 191.105 246.161 192.38 246.161 193.662C246.161 211.157 267.467 224.861 294.662 224.861C321.863 224.861 343.169 211.157 343.169 193.662C343.169 192.379 343.053 191.104 342.825 189.845C349.755 190.339 356.543 192.758 362.189 196.784L429.48 244.798ZM375.859 383.793L409.376 438.403L384.44 453.703L350.928 399.093C349.916 397.447 348.232 396.328 346.322 396.035C345.993 395.984 345.659 395.958 345.326 395.958C343.754 395.958 342.219 396.523 341.012 397.571L317.57 417.944L322.726 325.178L407.769 362.59L378.992 374.265C377.199 374.991 375.818 376.468 375.217 378.303C374.616 380.139 374.848 382.147 375.859 383.793ZM330.023 193.662C330.023 202.202 315.501 211.715 294.662 211.715C273.829 211.715 259.307 202.202 259.307 193.662C259.307 192.343 259.623 191.034 260.247 189.749H329.081C329.706 191.035 330.023 192.344 330.023 193.662ZM253.443 139.127C238.628 139.127 226.576 127.075 226.576 112.262V79.5285H280.31V112.262C280.31 127.075 268.258 139.127 253.443 139.127ZM146.555 66.3826H94.8049L105.379 26.7291H146.555V66.3826ZM159.701 26.7291H200.876L211.447 66.3826H159.701V26.7291ZM92.8208 79.5285H146.555V112.262C146.555 127.075 134.503 139.127 119.688 139.127C104.873 139.127 92.8208 127.075 92.8208 112.262V79.5285ZM159.701 79.5285H213.43V112.262C213.43 127.075 201.378 139.127 186.568 139.127C171.753 139.127 159.701 127.075 159.701 112.262V79.5285ZM256.211 29.407L275.928 66.3826H225.054L214.483 26.7291H251.748C253.617 26.7291 255.327 27.7561 256.211 29.407ZM50.0452 29.4096C50.9284 27.7561 52.6384 26.7291 54.5076 26.7291H91.7713L81.1968 66.3826H30.3275L50.0452 29.4096ZM25.946 112.262V79.5285H79.6749V112.262C79.6749 127.075 67.6227 139.127 52.813 139.127C37.9981 139.127 25.946 127.075 25.946 112.262ZM61.0703 151.414C71.5556 149.205 80.5395 142.878 86.2479 134.209C93.4078 145.081 105.722 152.273 119.688 152.273C133.654 152.273 145.968 145.081 153.128 134.208C160.288 145.08 172.602 152.273 186.568 152.273C200.53 152.273 212.843 145.081 220.002 134.209C225.708 142.874 234.689 149.199 245.17 151.411V176.757C235.926 177.47 227.131 180.658 219.53 186.083L195.083 203.527H151.269V168.269C151.269 164.638 148.326 161.696 144.696 161.696H86.2479C82.6173 161.696 79.6749 164.638 79.6749 168.269V203.527H61.0703V151.414ZM138.123 203.527H92.8208V174.842H138.123V203.527ZM45.6649 216.673H176.658L146.647 238.086C145.184 239.129 144.213 240.72 143.956 242.497C143.7 244.271 144.182 246.074 145.286 247.486L156.311 261.579H25.946V236.391C25.946 225.518 34.7938 216.673 45.6649 216.673ZM466.335 485.271H45.6649C34.7938 485.271 25.946 476.426 25.946 465.552V274.725H166.595L180.416 292.393C182.259 294.76 185.474 295.556 188.211 294.372L212.88 283.648V383.942C212.88 387.572 215.823 390.515 219.453 390.515H305.928L303.582 432.741C303.433 435.378 304.881 437.848 307.254 439.008C309.621 440.166 312.461 439.807 314.458 438.066L343.78 412.581L376.676 466.181C377.918 468.202 380.075 469.316 382.283 469.316C383.459 469.316 384.645 469.003 385.719 468.346L421.855 446.169C423.339 445.258 424.402 443.792 424.807 442.097C425.213 440.403 424.931 438.616 424.016 437.129L391.121 383.528L427.118 368.924C429.568 367.931 431.18 365.571 431.221 362.929C431.257 360.289 429.711 357.881 427.293 356.818L376.47 334.461V283.648L401.139 294.372C403.876 295.556 407.091 294.76 408.935 292.393L422.756 274.725H486.054V465.552C486.054 476.426 477.206 485.271 466.335 485.271Z" fill="black"/>
<path d="M67.3557 409.464H150.452C154.083 409.464 157.025 406.521 157.025 402.891C157.025 399.26 154.083 396.318 150.452 396.318H67.3557C63.7251 396.318 60.7827 399.26 60.7827 402.891C60.7827 406.521 63.7251 409.464 67.3557 409.464Z" fill="black"/>
<path d="M209.332 425.567H105.808C102.177 425.567 99.2346 428.51 99.2346 432.14C99.2346 435.771 102.177 438.713 105.808 438.713H209.332C212.962 438.713 215.905 435.771 215.905 432.14C215.905 428.51 212.962 425.567 209.332 425.567Z" fill="black"/>
<path d="M67.3557 438.713H82.1449C85.7754 438.713 88.7179 435.771 88.7179 432.14C88.7179 428.51 85.7754 425.567 82.1449 425.567H67.3557C63.7251 425.567 60.7827 428.51 60.7827 432.14C60.7827 435.771 63.7251 438.713 67.3557 438.713Z" fill="black"/>
<path d="M209.332 454.817H179.728C176.097 454.817 173.155 457.759 173.155 461.39C173.155 465.021 176.097 467.963 179.728 467.963H209.332C212.962 467.963 215.905 465.021 215.905 461.39C215.905 457.759 212.962 454.817 209.332 454.817Z" fill="black"/>
<path d="M108.904 454.817H67.3557C63.7251 454.817 60.7827 457.759 60.7827 461.39C60.7827 465.021 63.7251 467.963 67.3557 467.963H108.904C112.535 467.963 115.477 465.021 115.477 461.39C115.477 457.759 112.535 454.817 108.904 454.817Z" fill="black"/>
<path d="M150.452 454.817H137.029C133.399 454.817 130.456 457.759 130.456 461.39C130.456 465.021 133.399 467.963 137.029 467.963H150.452C154.083 467.963 157.025 465.021 157.025 461.39C157.025 457.759 154.083 454.817 150.452 454.817Z" fill="black"/>
<path d="M367.001 147.751C368.177 148.627 369.553 149.048 370.914 149.048C372.922 149.048 374.904 148.131 376.198 146.396L443.669 55.5654C445.831 52.6512 445.225 48.5328 442.308 46.3684C439.396 44.2039 435.288 44.8124 433.111 47.7241L365.64 138.554C363.478 141.469 364.084 145.587 367.001 147.751Z" fill="black"/>
<path d="M383.788 88.9053C397.191 88.9053 408.098 78.0008 408.098 64.5981C408.098 51.1954 397.191 40.2935 383.788 40.2935C370.385 40.2935 359.483 51.1954 359.483 64.5981C359.483 78.0008 370.385 88.9053 383.788 88.9053ZM383.788 53.4395C389.945 53.4395 394.952 58.4462 394.952 64.5981C394.952 70.7526 389.945 75.7593 383.788 75.7593C377.636 75.7593 372.629 70.7526 372.629 64.5981C372.629 58.4462 377.636 53.4395 383.788 53.4395Z" fill="black"/>
<path d="M425.516 105.214C412.113 105.214 401.211 116.119 401.211 129.522C401.211 142.924 412.113 153.829 425.516 153.829C438.919 153.829 449.826 142.924 449.826 129.522C449.826 116.119 438.919 105.214 425.516 105.214ZM425.516 140.683C419.364 140.683 414.357 135.676 414.357 129.522C414.357 123.367 419.364 118.36 425.516 118.36C431.673 118.36 436.68 123.367 436.68 129.522C436.68 135.676 431.673 140.683 425.516 140.683Z" fill="black"/>
<path d="M404.652 180.537C450.683 180.537 488.129 143.089 488.129 97.0599C488.129 51.0311 450.683 13.5831 404.652 13.5831C358.621 13.5831 321.175 51.0311 321.175 97.0599C321.175 143.089 358.621 180.537 404.652 180.537ZM404.652 26.7291C443.432 26.7291 474.983 58.2793 474.983 97.0599C474.983 135.84 443.432 167.391 404.652 167.391C365.871 167.391 334.321 135.84 334.321 97.0599C334.321 58.2793 365.871 26.7291 404.652 26.7291Z" fill="black"/>
<path d="M54.523 245.717H62.9395C66.57 245.717 69.5124 242.774 69.5124 239.144C69.5124 235.513 66.57 232.571 62.9395 232.571H54.523C50.8924 232.571 47.95 235.513 47.95 239.144C47.95 242.774 50.8924 245.717 54.523 245.717Z" fill="black"/>
<path d="M93.0879 245.717H101.504C105.135 245.717 108.077 242.774 108.077 239.144C108.077 235.513 105.135 232.571 101.504 232.571H93.0879C89.4573 232.571 86.5149 235.513 86.5149 239.144C86.5149 242.774 89.4573 245.717 93.0879 245.717Z" fill="black"/>
<path d="M57.28 360.84C57.28 358.067 57.8533 355.6 59 353.44C60.1733 351.253 61.8267 349.56 63.96 348.36C66.0933 347.133 68.5467 346.52 71.32 346.52C74.84 346.52 77.8 347.467 80.2 349.36C82.6 351.227 84.1467 353.773 84.84 357H76.4C75.8933 355.933 75.1867 355.12 74.28 354.56C73.4 354 72.3733 353.72 71.2 353.72C69.3867 353.72 67.9333 354.373 66.84 355.68C65.7733 356.96 65.24 358.68 65.24 360.84C65.24 363.027 65.7733 364.773 66.84 366.08C67.9333 367.36 69.3867 368 71.2 368C72.3733 368 73.4 367.72 74.28 367.16C75.1867 366.6 75.8933 365.787 76.4 364.72H84.84C84.1467 367.947 82.6 370.507 80.2 372.4C77.8 374.267 74.84 375.2 71.32 375.2C68.5467 375.2 66.0933 374.6 63.96 373.4C61.8267 372.173 60.1733 370.48 59 368.32C57.8533 366.133 57.28 363.64 57.28 360.84ZM113.793 346.8V375H105.953V363.68H96.3925V375H88.5525V346.8H96.3925V357.4H105.953V346.8H113.793ZM137.399 346.8V353.04H126.119V358H134.439V363.96H126.119V375H118.279V346.8H137.399Z" fill="black"/>
</svg>
