<svg width="512" height="512" viewBox="0 0 512 512" fill="none" xmlns="http://www.w3.org/2000/svg">
<path d="M136 384C131.253 384 126.613 385.408 122.666 388.045C118.72 390.682 115.643 394.43 113.827 398.816C112.01 403.201 111.535 408.027 112.461 412.682C113.387 417.338 115.673 421.614 119.029 424.971C122.386 428.327 126.662 430.613 131.318 431.539C135.973 432.465 140.799 431.99 145.184 430.173C149.57 428.357 153.318 425.28 155.955 421.334C158.592 417.387 160 412.747 160 408C159.993 401.637 157.462 395.536 152.963 391.037C148.463 386.538 142.363 384.007 136 384ZM136 416C134.418 416 132.871 415.531 131.555 414.652C130.24 413.773 129.214 412.523 128.609 411.061C128.003 409.6 127.845 407.991 128.154 406.439C128.462 404.887 129.224 403.462 130.343 402.343C131.462 401.224 132.887 400.462 134.439 400.154C135.991 399.845 137.6 400.003 139.061 400.609C140.523 401.214 141.773 402.24 142.652 403.555C143.531 404.871 144 406.418 144 408C143.999 410.121 143.155 412.155 141.655 413.655C140.155 415.155 138.121 415.999 136 416Z" fill="black"/>
<path d="M216 400H192C189.878 400 187.843 400.843 186.343 402.343C184.843 403.843 184 405.878 184 408C184 410.122 184.843 412.157 186.343 413.657C187.843 415.157 189.878 416 192 416H216C218.122 416 220.157 415.157 221.657 413.657C223.157 412.157 224 410.122 224 408C224 405.878 223.157 403.843 221.657 402.343C220.157 400.843 218.122 400 216 400Z" fill="black"/>
<path d="M80 400H56C53.8783 400 51.8434 400.843 50.3431 402.343C48.8429 403.843 48 405.878 48 408C48 410.122 48.8429 412.157 50.3431 413.657C51.8434 415.157 53.8783 416 56 416H80C82.1217 416 84.1566 415.157 85.6569 413.657C87.1571 412.157 88 410.122 88 408C88 405.878 87.1571 403.843 85.6569 402.343C84.1566 400.843 82.1217 400 80 400Z" fill="black"/>
<path d="M97.492 165.191C96.9207 163.665 95.8972 162.351 94.5584 161.422C93.2195 160.494 91.6292 159.997 90 159.997C88.3708 159.997 86.7805 160.494 85.4416 161.422C84.1028 162.351 83.0793 163.665 82.508 165.191L52.508 245.191C51.7631 247.178 51.838 249.38 52.7162 251.312C53.5945 253.243 55.2042 254.747 57.1912 255.492C59.1782 256.237 61.3797 256.162 63.3115 255.284C65.2433 254.405 66.7471 252.796 67.492 250.809L73.0456 236H106.954L112.508 250.809C112.877 251.793 113.436 252.694 114.153 253.462C114.87 254.23 115.732 254.849 116.688 255.284C117.645 255.719 118.678 255.961 119.728 255.997C120.778 256.032 121.825 255.861 122.809 255.492C123.793 255.123 124.694 254.564 125.462 253.847C126.23 253.13 126.849 252.268 127.284 251.312C127.719 250.355 127.961 249.322 127.997 248.272C128.032 247.222 127.861 246.175 127.492 245.191L97.492 165.191ZM79.0448 220L90 190.785L100.955 220H79.0448Z" fill="black"/>
<path d="M220 208C219.986 195.274 214.924 183.073 205.926 174.074C196.927 165.076 184.726 160.014 172 160H152C149.878 160 147.843 160.843 146.343 162.343C144.843 163.843 144 165.878 144 168V248C144 250.122 144.843 252.157 146.343 253.657C147.843 255.157 149.878 256 152 256H172C184.726 255.986 196.927 250.924 205.926 241.926C214.924 232.927 219.986 220.726 220 208ZM172 240H160V176H172C180.487 176 188.626 179.371 194.627 185.373C200.629 191.374 204 199.513 204 208C204 216.487 200.629 224.626 194.627 230.627C188.626 236.629 180.487 240 172 240Z" fill="black"/>
<path d="M500.969 340.5C498.019 332.166 493.176 324.629 486.82 318.484L424.875 256.543C420.521 252.364 415.072 249.503 409.159 248.293C403.247 247.082 397.112 247.571 391.466 249.703C385.819 251.835 380.892 255.522 377.255 260.339C373.618 265.155 371.42 270.903 370.914 276.918C366.033 275.691 360.932 275.635 356.025 276.753C351.118 277.871 346.545 280.131 342.677 283.351C338.809 286.571 335.756 290.658 333.766 295.281C331.776 299.903 330.906 304.93 331.226 309.953C326.694 309.681 322.155 310.37 317.907 311.975C313.659 313.579 309.799 316.064 306.578 319.266C302.599 323.227 299.736 328.17 298.282 333.594L264 299.315V64C263.988 53.3952 259.769 43.2283 252.27 35.7295C244.772 28.2308 234.605 24.0125 224 24H48C37.3952 24.0125 27.2283 28.2308 19.7295 35.7295C12.2308 43.2283 8.01249 53.3952 8 64V416C8.01249 426.605 12.2308 436.772 19.7295 444.27C27.2283 451.769 37.3952 455.988 48 456H224C226.96 455.96 229.906 455.57 232.775 454.841C234.338 461.963 238.285 468.338 243.962 472.913C249.64 477.487 256.709 479.988 264 480H386.18C398.903 479.967 411.099 474.913 420.117 465.938L487.594 398.461C495.037 391.028 500.238 381.65 502.603 371.401C504.968 361.151 504.402 350.443 500.969 340.5ZM24 64C24.007 57.6369 26.5378 51.5365 31.0372 47.0372C35.5365 42.5378 41.6369 40.007 48 40H224C230.363 40.007 236.463 42.5378 240.963 47.0372C245.462 51.5365 247.993 57.6369 248 64V72H24V64ZM24 88H248V283.317L245.313 280.629C239.516 274.58 231.62 270.986 223.251 270.588C214.883 270.19 206.681 273.017 200.336 278.488C197.09 281.385 194.474 284.919 192.65 288.869C190.826 292.82 189.834 297.103 189.734 301.453C189.63 305.795 190.406 310.112 192.016 314.146C193.626 318.18 196.036 321.845 199.102 324.922L234.18 360H24V88ZM233.902 437.534C230.826 439.082 227.443 439.924 224 440H48C41.6369 439.993 35.5365 437.462 31.0372 432.963C26.5378 428.464 24.007 422.363 24 416V376H248V416C247.963 417.619 247.745 419.229 247.349 420.8C241.072 424.661 236.321 430.573 233.902 437.534ZM476.282 387.149L408.805 454.625C402.793 460.609 394.662 463.979 386.18 464H264C259.757 464 255.687 462.314 252.686 459.314C249.686 456.313 248 452.243 248 448C248 443.757 249.686 439.687 252.686 436.686C255.687 433.686 259.757 432 264 432H309.492C311.074 432 312.621 431.531 313.936 430.652C315.251 429.773 316.277 428.523 316.882 427.062C317.488 425.6 317.646 423.992 317.337 422.44C317.029 420.888 316.267 419.463 315.149 418.344L210.414 313.61C208.876 312.072 207.667 310.238 206.861 308.218C206.055 306.197 205.67 304.034 205.728 301.86C205.787 299.686 206.288 297.546 207.201 295.572C208.114 293.598 209.42 291.831 211.039 290.379C214.362 287.705 218.57 286.381 222.825 286.67C227.08 286.96 231.07 288.842 233.999 291.942L306.578 364.516C307.316 365.277 308.199 365.884 309.174 366.301C310.15 366.718 311.198 366.937 312.259 366.945C313.32 366.953 314.372 366.75 315.353 366.348C316.335 365.946 317.227 365.352 317.977 364.602C318.727 363.852 319.32 362.96 319.722 361.979C320.125 360.997 320.328 359.945 320.319 358.885C320.311 357.824 320.092 356.775 319.675 355.8C319.258 354.824 318.651 353.942 317.89 353.203C316.404 351.718 315.225 349.954 314.421 348.013C313.616 346.072 313.202 343.992 313.202 341.891C313.202 339.79 313.616 337.709 314.421 335.768C315.225 333.827 316.404 332.064 317.89 330.578C320.937 327.667 324.988 326.043 329.202 326.043C333.416 326.043 337.468 327.667 340.515 330.578C341.996 332.059 343.999 332.899 346.093 332.92C348.187 332.94 350.206 332.139 351.715 330.687L351.825 330.578C353.325 329.078 354.167 327.044 354.167 324.922C354.167 322.8 353.325 320.766 351.825 319.266C348.83 316.261 347.149 312.19 347.15 307.948C347.152 303.705 348.836 299.636 351.833 296.633C354.882 293.726 358.934 292.106 363.147 292.107C367.36 292.109 371.41 293.732 374.458 296.641L380.208 302.383C380.947 303.145 381.829 303.752 382.805 304.169C383.78 304.586 384.829 304.805 385.889 304.813C386.95 304.821 388.002 304.618 388.984 304.215C389.965 303.813 390.857 303.22 391.607 302.469C392.357 301.719 392.951 300.828 393.353 299.846C393.755 298.864 393.958 297.812 393.95 296.752C393.942 295.691 393.723 294.642 393.306 293.667C392.888 292.692 392.281 291.809 391.52 291.07C390.021 289.575 388.833 287.798 388.023 285.842C387.213 283.886 386.797 281.789 386.8 279.672C386.811 277.456 387.273 275.266 388.156 273.234C389.04 271.202 390.328 269.37 391.941 267.851C394.813 264.992 398.701 263.388 402.754 263.388C406.807 263.389 410.694 264.995 413.566 267.855L475.511 329.797C480.118 334.207 483.644 339.621 485.816 345.617C488.28 352.737 488.693 360.407 487.007 367.751C485.321 375.094 481.605 381.816 476.282 387.149ZM264 416V389.82L290.18 416H264Z" fill="black"/>
</svg>
